<?xml version="1.0" encoding="utf-8"?>
<!-- Generator: Adobe Illustrator 16.0.3, SVG Export Plug-In . SVG Version: 6.00 Build 0)  -->
<!DOCTYPE svg PUBLIC "-//W3C//DTD SVG 1.1//EN" "http://www.w3.org/Graphics/SVG/1.1/DTD/svg11.dtd">
<svg version="1.1" id="Ebene_1" xmlns="http://www.w3.org/2000/svg" xmlns:xlink="http://www.w3.org/1999/xlink" x="0px" y="0px"
	 width="1700.79px" height="1700.79px" viewBox="0 0 1700.79 1700.79" enable-background="new 0 0 1700.79 1700.79"
	 xml:space="preserve">
<rect x="418.572" y="418.575" fill="#FFFFFF" width="863.643" height="863.643"/>
<rect x="433.08" y="433.083" fill="#164194" width="835.271" height="835.271"/>
<g>
	<defs>
		<rect id="SVGID_1_" x="418.572" y="418.575" width="863.643" height="863.643"/>
	</defs>
	<clipPath id="SVGID_2_">
		<use xlink:href="#SVGID_1_"  overflow="visible"/>
	</clipPath>
	<path clip-path="url(#SVGID_2_)" fill-rule="evenodd" clip-rule="evenodd" fill="#FFFFFF" d="M949.14,830.761
		c0.609,9.689,1.275,18.538,1.396,21.57c0.999,25.416-3.882,56.736-9.543,61.852l-67.943-92.173
		c45.877-38.155,60.781-65.13,60.781-101.465c0-49.661-38.522-85.896-92.965-85.896c-58.712,0-100.155,35.626-100.155,84.082
		c0,28.457,7.276,44.177,42.753,89.594c-55.121,31.821-83.855,76.056-80.766,119.048c5.157,71.89,59.881,112.27,139.395,112.716
		c40.613,0.233,65.769-8.33,94.41-31.254l17.52,23.596h77.671l-50.221-66.633c23.853-30.284,31.624-61.646,31.624-111.299
		c0-3.032-0.822-15.26-0.822-23.738H949.14z M835.616,774.943c-22.633-29.074-27.522-38.006-27.522-54.357
		c0-16.953,13.461-29.428,32.418-29.428c19.573,0,31.907,11.265,31.907,28.826C872.419,737.54,862.479,755.567,835.616,774.943
		 M897.028,957.714c-14.098,11.73-30.476,20.666-54.937,20.666c-39.756,0-66.804-20.666-67.803-52.983
		c-0.652-21.188,13.34-43.695,48.229-66.774L897.028,957.714z"/>
	<polygon clip-path="url(#SVGID_2_)" fill="#FFFFFF" points="654.326,1032.481 654.326,639.331 512.877,639.331 512.877,702.316 
		575.776,702.316 575.776,1032.489 	"/>
	<polygon clip-path="url(#SVGID_2_)" fill="#FFFFFF" points="1157.244,1032.481 1157.244,639.331 1015.803,639.331 
		1015.803,702.316 1078.702,702.316 1078.702,1032.489 	"/>
</g>
<rect x="418.572" y="418.575" fill="none" stroke="#000000" width="863.643" height="863.643"/>
</svg>
