<?xml version="1.0" encoding="utf-8"?>
<!-- Generator: Adobe Illustrator 16.0.3, SVG Export Plug-In . SVG Version: 6.00 Build 0)  -->
<!DOCTYPE svg PUBLIC "-//W3C//DTD SVG 1.1//EN" "http://www.w3.org/Graphics/SVG/1.1/DTD/svg11.dtd">
<svg version="1.1" id="Ebene_1" xmlns="http://www.w3.org/2000/svg" xmlns:xlink="http://www.w3.org/1999/xlink" x="0px" y="0px"
	 width="512px" height="512px" viewBox="0 0 512 512" enable-background="new 0 0 512 512" xml:space="preserve">
<g>
	<path fill="#999999" d="M327.672,196.843C327.64,196.831,327.641,196.832,327.672,196.843L327.672,196.843z"/>
	<path fill="#999999" d="M329.715,197.6c0.513,0.189,1.13,0.418,1.869,0.692C330.924,198.047,330.282,197.81,329.715,197.6z"/>
	<path fill="#999999" d="M333.819,199.12c-0.439-0.163-0.901-0.334-1.367-0.507c-0.001,0-0.001,0-0.001,0
		C332.958,198.801,333.411,198.968,333.819,199.12z"/>
	<path fill="#999999" d="M329.163,197.395c0.141,0.052,0.294,0.109,0.458,0.17C329.461,197.505,329.309,197.449,329.163,197.395z"/>
	<path fill="#999999" d="M332.451,198.613c-0.005-0.002-0.01-0.003-0.015-0.005c-0.148-0.055-0.297-0.11-0.445-0.165
		C332.143,198.499,332.291,198.553,332.451,198.613z"/>
	<path fill="#999999" d="M336.641,200.164c-0.119-0.044-0.303-0.112-0.535-0.198C336.354,200.058,336.529,200.123,336.641,200.164z"
		/>
	<path fill="#999999" d="M328.098,197.001c0.208,0.077,0.493,0.183,0.867,0.321C328.616,197.193,328.32,197.083,328.098,197.001z"/>
	<path fill="#999999" d="M256,1C115.167,1,1,115.167,1,256c0,140.833,114.167,255,255,255c140.833,0,255-114.167,255-255
		C511,115.167,396.833,1,256,1z M254,56c75,0,75,116.304,0,116.304S179,56,254,56z M320.021,267.727
		c-7.219,11.125-7.074,22.336-8.176,35.35c-4.316,50.975-8.633,101.949-12.949,152.924c-14.557-31.161-29.11-62.321-43.667-93.482
		c-15.6,31.161-31.2,62.321-46.801,93.482c-5.41-60.89-10.82-121.78-16.23-182.67c-8.607,20.441-17.215,40.884-25.822,61.326
		c-0.581-20.088-0.784-40.193-0.55-60.287c0.248-21.338-3.662-54.671,7.133-74.157c12.974-23.421,58.687-21.239,79.834-21.239
		c31.178,0,51.818,9.33,79.644,19.635c0.005,0.002,0.011,0.004,0.016,0.005c22.078,8.175,60.583-9.9,81.712-17.013
		C382.125,209.55,342.164,233.6,320.021,267.727z"/>
	<path fill="#999999" d="M335.279,199.66c-0.329-0.122-0.696-0.258-1.088-0.403C334.608,199.412,334.971,199.546,335.279,199.66z"/>
</g>
</svg>

